# xmcd
#
# Track frame offsets:
# 150
# 18835
# 31100
# 42612
# 57155
# 69097
# 87795
# 102115
# 113947
# 126260
# 139182
# 158040
# 175650
# 189115
# 202260
# 218162
# 230570
# 241862
# 257787
# 270405
# 283352
# 298135
# 309662
#
# Disc length: 4341 seconds
#
# Revision: 4
# Processed by: cddbd v1.5.2PL0 Copyright (c) Steve Scherf et al.
# Submitted via: TinyPlayer 2.8
#
DISCID=4c10f317
DTITLE=Various Artist - The Best Country Ballads in the World... Ever! [Disc 2 of 2]
DYEAR=1998
DGENRE=Country
TTITLE0=LeAnn Rimes - How Do I Live
TTITLE1=Patsy Cline - Crazy
TTITLE2=Bobbie Gentry and Glen Campbell - All I Have to Do Is Dream
TTITLE3=Dr. Hook - A Little Bit More
TTITLE4=Tammy Wynette - Stand by Your Man
TTITLE5=Kenny Rogers and Dolly Parton - Islands in the Stream
TTITLE6=Glen Campbell - Rhinestone Cowboy
TTITLE7=Dolly Parton - Jolene
TTITLE8=Billie Jo Spears - What I've Got in Mind
TTITLE9=Olivia Newton-John - If Not for You
TTITLE10=Juice Newton - Angel of the Morning
TTITLE11=The Judds - Love Can Build a Bridge
TTITLE12=Kenny Rogers - I Will Always Love You
TTITLE13=Charlie Rich - Behind Closed Doors
TTITLE14=Willie Nelson - Always on My Mind
TTITLE15=Jim Reeves - I Love You Because
TTITLE16=Crystal Gayle - Don't It Make My Brown Eyes Blue
TTITLE17=Rita Coolidge - We're All Alone
TTITLE18=Don Williams - You're My Best Friend
TTITLE19=Bobbie Gentry - I'll Never Fall in Love Again
TTITLE20=Olivia Newton-John - Take Me Home Country Roads
TTITLE21=Johnny Cash - A Thing Called Love
TTITLE22=Billie Jo Spears - Blanket on the Ground
EXTD=UPC: 724384634520 - Catalogue #: VTDCD211,7243 8 46345 2 0 - Label: Virgin TV - ASIN: B00000GAMR - Release Date: 1998 10 26 - Discogs:  - MUSICBRAINZ_ALBUMID:  - Location: ;
EXTT0=
EXTT1=
EXTT2=
EXTT3=
EXTT4=
EXTT5=
EXTT6=
EXTT7=
EXTT8=
EXTT9=
EXTT10=
EXTT11=
EXTT12=
EXTT13=
EXTT14=
EXTT15=
EXTT16=
EXTT17=
EXTT18=
EXTT19=
EXTT20=
EXTT21=
EXTT22=
PLAYORDER=
